<!DOCTYPE svg PUBLIC "-//W3C//DTD SVG 1.1//EN" "http://www.w3.org/Graphics/SVG/1.1/DTD/svg11.dtd">

<!-- Uploaded to: SVG Repo, www.svgrepo.com, Transformed by: SVG Repo Mixer Tools -->
<svg fill="#000000" version="1.1" id="Layer_1" xmlns="http://www.w3.org/2000/svg" xmlns:xlink="http://www.w3.org/1999/xlink" viewBox="-2.4 -2.4 28.80 28.80" xml:space="preserve" width="120px" height="120px" stroke="#000000" transform="matrix(1, 0, 0, 1, 0, 0)rotate(0)">

<g id="SVGRepo_bgCarrier" stroke-width="0"/>

<g id="SVGRepo_tracerCarrier" stroke-linecap="round" stroke-linejoin="round"/>

<g id="SVGRepo_iconCarrier"> <g> <rect x="10" y="20" width="4" height="2"/> <path d="M20,17v-2h-1V7h-1V6h-1V5h-1V4h-3V2h-2v2H8v1H7v1H6v1H5v8H4v2H3v2h18v-2H20z M6,16h1V9h1V8h1V7h1V6h4v1h1v1h1v1h1v7h1v1H6 V16z"/> </g> </g>

</svg>